<?xml version="1.0"?><svg version="1.2" baseProfile="tiny-ps" viewBox="0 0 300 300" xmlns="http://www.w3.org/2000/svg" xmlns:xlink="http://www.w3.org/1999/xlink"><title>info.mailether.com</title><g><g fill="red" transform="matrix(.1 0 0 -.1 0 300)"><path d="M0 1500V0h3000v3000H0V1500z"/></g><g fill="#ce0000" transform="matrix(.1 0 0 -.1 0 300)"><path d="M0 1500V0h3000v3000H0V1500zm1521 558c11-22 84-142 216-357 35-57 62-105 61-106-2-2-70 35-151 81l-148 85-147-84c-81-46-149-83-150-81-4 2 156 269 233 389 18 28 37 60 44 73 6 12 16 22 21 22s15-10 21-22zm-173-118-13-20H784l-22-16c-12-8-22-19-22-23s86-83 190-176l191-168 14-35c8-19 15-36 15-38s-90 76-201 174c-110 97-205 179-210 180l-9 4V990h10c6 0 112 90 237 200l226 200 15-12 14-12-58-54c-33-29-137-121-231-205L770 956l13-8 12-8h1426l-3 14c-2 8-86 87-188 177s-202 179-223 199l-39 36 14 12 14 11 227-200c124-109 231-199 237-199h10v415c0 228-3 415-6 415-4 0-95-78-203-173s-201-176-208-180l-11-7 18 38 19 39 163 145c90 80 177 157 193 171l30 27-24 20-23 20h-557l-11 20-11 20h572l34-14 34-14 15-31 16-30V989l-16-30-15-31-34-14-34-14H789l-34 14-34 14-15 31-16 30v882l16 30 15 31 32 13 32 14 288 1h287l-12-20zm440-462c-13-18-84-117-157-221l-133-187-25 37c-38 55-105 152-187 267-40 56-76 107-80 115l-9 14 14-8c25-16 182-117 235-152l52-34 153 100c85 55 156 100 158 100 2 1-8-14-21-31zm-348-65c0-7-39 17-46 28l-6 11 26-17c14-10 26-19 26-22zm70-37-10-10-10 10-10 10h40l-10-10z"/></g><g fill="#a50000" transform="matrix(.1 0 0 -.1 0 300)"><path d="M0 1500V0h3000v3000H0V1500zm1551 512c25-42 96-159 157-260l112-182-28 19c-15 11-87 53-160 94l-133 75-150-85c-83-47-151-84-153-82-4 5 297 499 304 499 3 0 26-35 51-78zm-201-72-11-20H795l-24-13c-14-6-26-17-28-22l-3-10 194-170 194-170 7-24c3-14 16-39 28-55l21-31-129 115c-243 214-290 256-307 269l-18 13V990h10c5 0 91 73 192 163 100 89 201 179 224 200 23 20 47 37 52 37 9 0 26-31 20-35-3-1-257-226-411-362-21-19-36-37-33-41l4-7 711 1c391 0 713 3 716 6 4 3-94 95-217 204l-223 198v15c0 8 5 16 11 18l12 4 47-41c26-22 127-113 225-200 99-88 184-160 189-160h11v832l-17-13c-10-8-109-94-220-192-187-164-226-194-188-143 8 11 15 27 15 36v15l168 147c92 81 182 162 200 181l33 34-17 14-17 14-283 3-284 3-10 19-11 20h582l29-15 30-15 15-30 15-29V989l-16-30-15-31-34-14-34-14H779l-29 15c-16 8-36 25-44 37l-16 22v907l11 20c5 11 25 29 42 39l32 20h586l-11-20zm36-487c56-35 107-63 114-63s58 28 114 63c55 35 108 67 116 72l15 8-10-10c-5-5-61-43-122-83l-113-72-112 72c-62 40-117 78-123 83l-10 10 15-8c8-5 61-37 116-72zm10-74c50-33 96-59 103-59 10 0 79 42 291 179l25 16-60-86c-33-47-103-147-155-222s-97-136-100-136-21 23-40 51c-19 29-85 122-145 207-61 86-115 162-119 170l-9 13 59-37c33-21 100-64 150-96z"/></g><g fill="#5e0000" transform="matrix(.1 0 0 -.1 0 300)"><path d="M0 1500V0h3000v3000H0V1500zm1640 368c74-122 145-239 157-259l23-37-130-83c-71-46-144-92-162-103l-33-18-155 101-155 102 3 10c4 18 305 509 311 509 4 0 67-100 141-222zm-292 70-15-23-284-5-284-5-13-8-12-8 6-10c3-5 90-84 192-175l187-166 12-30c7-16 22-44 35-61l21-32-29 26c-105 94-402 356-414 366l-15 11 2-410c2-226 4-412 5-414 2-1 107 89 235 201l231 204 13-15 13-16-10-13c-5-8-108-101-229-207L775 955l363-3c199-1 525-1 724 0l362 3-227 200-227 200v13c0 7 6 15 14 18l15 6 228-201 228-201 3 205c1 113 1 298 0 412l-3 207-190-169c-104-92-205-182-222-199-39-36-42-32-8 14 14 19 25 41 25 51v17l195 171 195 172v13c0 8-7 17-16 20s-140 6-291 6h-276l-13 18c-7 9-14 21-14 25v8l306-3 306-3 29-33 29-32V970l-29-32-29-33-743-3-742-2-23 15c-13 8-31 26-40 40l-16 24 1 453 1 453 19 25c10 14 29 31 42 37l24 13h587l-14-22zm30-545c62-40 116-73 121-73 4 0 68 39 141 86 74 47 142 90 153 96l19 10-7-14c-5-7-49-71-100-143-50-71-115-164-144-205s-56-75-61-75c-8 0-310 422-310 432 0 6 43-20 188-114zm27 310c-44-25-111-64-149-86l-69-39 29-18c16-9 84-51 152-93 68-43 127-77 132-77s77 42 160 94l151 95-43 24c-24 14-91 52-150 86-59 33-113 61-120 60-7 0-49-21-93-46z"/></g><g fill="#030000" transform="matrix(.1 0 0 -.1 0 300)"><path d="M0 1500V0h3000v3000H0V1500zm1571 488c34-57 104-172 156-256l94-153-6-8c-2-5-53-39-112-77-60-37-126-81-147-96s-46-28-54-28c-14 0-281 168-311 196l-14 12 55 89c62 99 215 351 243 400 10 18 22 30 26 27 4-2 35-50 70-106zm-211-35c0-5-7-16-14-25l-13-18H772l-13-16-13-16 29-26c17-13 68-59 115-102 47-42 122-110 168-149l82-73v-15c0-9 12-31 26-50 41-55 20-50-43 9-32 30-119 108-193 173s-147 130-162 144l-28 25V988l49 44c130 115 388 343 402 355l16 13 17-19 17-19-230-204-231-203 360-3c198-1 522-1 720 0l360 3-213 187c-117 103-220 195-229 205l-16 18 14 19 14 20 27-26c26-23 303-267 399-351l44-39v826l-27-26c-16-14-104-92-197-174-243-215-252-221-201-146 14 20 25 42 25 48 0 7 37 45 83 85 45 41 84 76 87 79s50 45 105 94 104 93 109 97l9 8-13 16-12 15h-567l-11 19c-5 11-10 22-10 25s133 6 295 6h294l26-12 26-12 15-27 14-28V965l-18-21c-9-12-27-27-39-33l-22-11H765l-32 20-32 19-11 41-11 41 3 432 3 432 13 22c7 13 25 29 40 37l27 15 298 1h297v-7zm-20-533c47-30 102-66 123-79l37-23 151 97c83 53 153 94 156 91 4-4-254-380-295-428l-15-18-46 68c-26 37-90 128-142 202-53 74-104 148-115 165l-19 30 40-25c22-13 78-49 125-80zm8 247c-81-45-148-85-148-88 0-4 68-48 150-98l151-92 149 92 150 92-5 7c-5 8-288 170-296 170-2 0-70-37-151-83z"/></g></g></svg>